<mxfile host="Electron" agent="Mozilla/5.0 (Windows NT 10.0; Win64; x64) AppleWebKit/537.36 (KHTML, like Gecko) draw.io/24.1.0 Chrome/120.0.6099.109 Electron/28.1.0 Safari/537.36" modified="2024-10-04T20:57:56.709Z" etag="ke5BF4lVstmPJf6hdsuS" version="24.1.0" type="device">
  <diagram name="Page-1" id="h40brPSuF3PjL7NMU1fi">
    <mxGraphModel dx="1075" dy="598" grid="1" gridSize="10" guides="1" tooltips="1" connect="1" arrows="1" fold="1" page="1" pageScale="1" pageWidth="850" pageHeight="1100" math="0" shadow="0">
      <root>
        <mxCell id="0" />
        <mxCell id="1" parent="0" />
        <mxCell id="NP6O_twClJ4kkrfj3z0M-59" style="edgeStyle=orthogonalEdgeStyle;rounded=0;orthogonalLoop=1;jettySize=auto;html=1;entryX=0.5;entryY=0;entryDx=0;entryDy=0;" parent="1" source="NP6O_twClJ4kkrfj3z0M-55" target="NP6O_twClJ4kkrfj3z0M-57" edge="1">
          <mxGeometry relative="1" as="geometry" />
        </mxCell>
        <mxCell id="NP6O_twClJ4kkrfj3z0M-60" value="PWM 8x" style="edgeLabel;html=1;align=center;verticalAlign=middle;resizable=0;points=[];" parent="NP6O_twClJ4kkrfj3z0M-59" vertex="1" connectable="0">
          <mxGeometry x="-0.1429" y="-1" relative="1" as="geometry">
            <mxPoint as="offset" />
          </mxGeometry>
        </mxCell>
        <mxCell id="NP6O_twClJ4kkrfj3z0M-55" value="MCU" style="rounded=1;whiteSpace=wrap;html=1;absoluteArcSize=1;arcSize=14;strokeWidth=2;" parent="1" vertex="1">
          <mxGeometry x="670" y="280" width="100" height="100" as="geometry" />
        </mxCell>
        <mxCell id="NP6O_twClJ4kkrfj3z0M-61" style="edgeStyle=orthogonalEdgeStyle;rounded=0;orthogonalLoop=1;jettySize=auto;html=1;entryX=0;entryY=0.5;entryDx=0;entryDy=0;" parent="1" source="NP6O_twClJ4kkrfj3z0M-56" target="NP6O_twClJ4kkrfj3z0M-55" edge="1">
          <mxGeometry relative="1" as="geometry" />
        </mxCell>
        <mxCell id="NP6O_twClJ4kkrfj3z0M-62" value="5V" style="edgeLabel;html=1;align=center;verticalAlign=middle;resizable=0;points=[];" parent="NP6O_twClJ4kkrfj3z0M-61" vertex="1" connectable="0">
          <mxGeometry x="0.0833" relative="1" as="geometry">
            <mxPoint as="offset" />
          </mxGeometry>
        </mxCell>
        <mxCell id="NP6O_twClJ4kkrfj3z0M-71" style="edgeStyle=orthogonalEdgeStyle;rounded=0;orthogonalLoop=1;jettySize=auto;html=1;exitX=1;exitY=0.25;exitDx=0;exitDy=0;entryX=0;entryY=0.25;entryDx=0;entryDy=0;" parent="1" source="NP6O_twClJ4kkrfj3z0M-56" target="NP6O_twClJ4kkrfj3z0M-55" edge="1">
          <mxGeometry relative="1" as="geometry" />
        </mxCell>
        <mxCell id="NP6O_twClJ4kkrfj3z0M-72" value="VBAT sense" style="edgeLabel;html=1;align=center;verticalAlign=middle;resizable=0;points=[];" parent="NP6O_twClJ4kkrfj3z0M-71" vertex="1" connectable="0">
          <mxGeometry x="0.1516" y="-1" relative="1" as="geometry">
            <mxPoint as="offset" />
          </mxGeometry>
        </mxCell>
        <mxCell id="NP6O_twClJ4kkrfj3z0M-73" style="edgeStyle=orthogonalEdgeStyle;rounded=0;orthogonalLoop=1;jettySize=auto;html=1;exitX=0.5;exitY=1;exitDx=0;exitDy=0;" parent="1" source="NP6O_twClJ4kkrfj3z0M-56" target="NP6O_twClJ4kkrfj3z0M-57" edge="1">
          <mxGeometry relative="1" as="geometry">
            <Array as="points">
              <mxPoint x="520" y="380" />
              <mxPoint x="520" y="500" />
            </Array>
          </mxGeometry>
        </mxCell>
        <mxCell id="NP6O_twClJ4kkrfj3z0M-74" value="15V isolated" style="edgeLabel;html=1;align=center;verticalAlign=middle;resizable=0;points=[];" parent="NP6O_twClJ4kkrfj3z0M-73" vertex="1" connectable="0">
          <mxGeometry x="0.3805" y="1" relative="1" as="geometry">
            <mxPoint x="11" as="offset" />
          </mxGeometry>
        </mxCell>
        <mxCell id="uLdRjYAfGLdBlqgyUNDl-7" style="edgeStyle=orthogonalEdgeStyle;rounded=0;orthogonalLoop=1;jettySize=auto;html=1;exitX=0;exitY=0.75;exitDx=0;exitDy=0;entryX=1;entryY=0.75;entryDx=0;entryDy=0;" parent="1" source="NP6O_twClJ4kkrfj3z0M-56" target="NP6O_twClJ4kkrfj3z0M-58" edge="1">
          <mxGeometry relative="1" as="geometry" />
        </mxCell>
        <mxCell id="uLdRjYAfGLdBlqgyUNDl-8" value="charge" style="edgeLabel;html=1;align=center;verticalAlign=middle;resizable=0;points=[];" parent="uLdRjYAfGLdBlqgyUNDl-7" vertex="1" connectable="0">
          <mxGeometry x="0.0381" relative="1" as="geometry">
            <mxPoint as="offset" />
          </mxGeometry>
        </mxCell>
        <mxCell id="NP6O_twClJ4kkrfj3z0M-56" value="PSU" style="rounded=1;whiteSpace=wrap;html=1;absoluteArcSize=1;arcSize=14;strokeWidth=2;" parent="1" vertex="1">
          <mxGeometry x="450" y="280" width="100" height="100" as="geometry" />
        </mxCell>
        <mxCell id="NP6O_twClJ4kkrfj3z0M-63" style="edgeStyle=orthogonalEdgeStyle;rounded=0;orthogonalLoop=1;jettySize=auto;html=1;flowAnimation=0;shadow=0;entryX=0;entryY=0.5;entryDx=0;entryDy=0;" parent="1" edge="1">
          <mxGeometry relative="1" as="geometry">
            <mxPoint x="580" y="560" as="sourcePoint" />
            <Array as="points">
              <mxPoint x="630" y="560" />
              <mxPoint x="630" y="560" />
            </Array>
            <mxPoint x="670" y="560" as="targetPoint" />
          </mxGeometry>
        </mxCell>
        <mxCell id="NP6O_twClJ4kkrfj3z0M-65" value="AC" style="edgeLabel;html=1;align=center;verticalAlign=middle;resizable=0;points=[];" parent="NP6O_twClJ4kkrfj3z0M-63" vertex="1" connectable="0">
          <mxGeometry x="-0.0667" relative="1" as="geometry">
            <mxPoint as="offset" />
          </mxGeometry>
        </mxCell>
        <mxCell id="NP6O_twClJ4kkrfj3z0M-57" value="Load Switch" style="rounded=1;whiteSpace=wrap;html=1;absoluteArcSize=1;arcSize=14;strokeWidth=2;" parent="1" vertex="1">
          <mxGeometry x="670" y="480" width="100" height="100" as="geometry" />
        </mxCell>
        <mxCell id="NP6O_twClJ4kkrfj3z0M-66" style="edgeStyle=orthogonalEdgeStyle;rounded=0;orthogonalLoop=1;jettySize=auto;html=1;entryX=0;entryY=0.5;entryDx=0;entryDy=0;endArrow=classic;endFill=1;" parent="1" edge="1">
          <mxGeometry relative="1" as="geometry">
            <mxPoint x="360" y="300" as="sourcePoint" />
            <mxPoint x="450" y="300" as="targetPoint" />
          </mxGeometry>
        </mxCell>
        <mxCell id="NP6O_twClJ4kkrfj3z0M-67" value="VBAT" style="edgeLabel;html=1;align=center;verticalAlign=middle;resizable=0;points=[];" parent="NP6O_twClJ4kkrfj3z0M-66" vertex="1" connectable="0">
          <mxGeometry x="-0.0148" y="1" relative="1" as="geometry">
            <mxPoint as="offset" />
          </mxGeometry>
        </mxCell>
        <mxCell id="nt6npgmJ3oPDKKiP0JpL-4" style="edgeStyle=orthogonalEdgeStyle;rounded=0;orthogonalLoop=1;jettySize=auto;html=1;entryX=1;entryY=0.5;entryDx=0;entryDy=0;" parent="1" source="NP6O_twClJ4kkrfj3z0M-58" target="nt6npgmJ3oPDKKiP0JpL-1" edge="1">
          <mxGeometry relative="1" as="geometry" />
        </mxCell>
        <mxCell id="nt6npgmJ3oPDKKiP0JpL-5" value="charge" style="edgeLabel;html=1;align=center;verticalAlign=middle;resizable=0;points=[];" parent="nt6npgmJ3oPDKKiP0JpL-4" vertex="1" connectable="0">
          <mxGeometry x="-0.0337" y="-2" relative="1" as="geometry">
            <mxPoint as="offset" />
          </mxGeometry>
        </mxCell>
        <mxCell id="nt6npgmJ3oPDKKiP0JpL-6" style="edgeStyle=orthogonalEdgeStyle;rounded=0;orthogonalLoop=1;jettySize=auto;html=1;exitX=0;exitY=0.75;exitDx=0;exitDy=0;entryX=1;entryY=0.75;entryDx=0;entryDy=0;" parent="1" source="NP6O_twClJ4kkrfj3z0M-58" target="nt6npgmJ3oPDKKiP0JpL-1" edge="1">
          <mxGeometry relative="1" as="geometry" />
        </mxCell>
        <mxCell id="nt6npgmJ3oPDKKiP0JpL-7" value="balance" style="edgeLabel;html=1;align=center;verticalAlign=middle;resizable=0;points=[];" parent="nt6npgmJ3oPDKKiP0JpL-6" vertex="1" connectable="0">
          <mxGeometry x="-0.0194" relative="1" as="geometry">
            <mxPoint as="offset" />
          </mxGeometry>
        </mxCell>
        <mxCell id="NP6O_twClJ4kkrfj3z0M-58" value="BMS" style="rounded=1;whiteSpace=wrap;html=1;absoluteArcSize=1;arcSize=14;strokeWidth=2;" parent="1" vertex="1">
          <mxGeometry x="260" y="280" width="100" height="100" as="geometry" />
        </mxCell>
        <mxCell id="uLdRjYAfGLdBlqgyUNDl-5" style="edgeStyle=orthogonalEdgeStyle;rounded=0;orthogonalLoop=1;jettySize=auto;html=1;entryX=0;entryY=0.6;entryDx=0;entryDy=0;entryPerimeter=0;" parent="1" edge="1">
          <mxGeometry relative="1" as="geometry">
            <mxPoint x="490" y="380" as="sourcePoint" />
            <mxPoint x="670" y="530" as="targetPoint" />
            <Array as="points">
              <mxPoint x="480" y="380" />
              <mxPoint x="480" y="530" />
            </Array>
          </mxGeometry>
        </mxCell>
        <mxCell id="uLdRjYAfGLdBlqgyUNDl-6" value="5V" style="edgeLabel;html=1;align=center;verticalAlign=middle;resizable=0;points=[];" parent="uLdRjYAfGLdBlqgyUNDl-5" vertex="1" connectable="0">
          <mxGeometry x="0.3437" y="2" relative="1" as="geometry">
            <mxPoint x="21" as="offset" />
          </mxGeometry>
        </mxCell>
        <mxCell id="nt6npgmJ3oPDKKiP0JpL-8" style="edgeStyle=orthogonalEdgeStyle;rounded=0;orthogonalLoop=1;jettySize=auto;html=1;exitX=1;exitY=0.25;exitDx=0;exitDy=0;entryX=0;entryY=0.25;entryDx=0;entryDy=0;" parent="1" source="nt6npgmJ3oPDKKiP0JpL-1" target="NP6O_twClJ4kkrfj3z0M-58" edge="1">
          <mxGeometry relative="1" as="geometry" />
        </mxCell>
        <mxCell id="nt6npgmJ3oPDKKiP0JpL-9" value="VBAT" style="edgeLabel;html=1;align=center;verticalAlign=middle;resizable=0;points=[];" parent="nt6npgmJ3oPDKKiP0JpL-8" vertex="1" connectable="0">
          <mxGeometry x="-0.0237" y="1" relative="1" as="geometry">
            <mxPoint as="offset" />
          </mxGeometry>
        </mxCell>
        <mxCell id="nt6npgmJ3oPDKKiP0JpL-1" value="Battery" style="rounded=1;whiteSpace=wrap;html=1;absoluteArcSize=1;arcSize=14;strokeWidth=2;" parent="1" vertex="1">
          <mxGeometry x="70" y="280" width="100" height="100" as="geometry" />
        </mxCell>
        <mxCell id="E2FdCw3m_LIYb2GWAZag-1" value="" style="endArrow=classic;html=1;rounded=0;entryX=0.5;entryY=0;entryDx=0;entryDy=0;" edge="1" parent="1" target="NP6O_twClJ4kkrfj3z0M-56">
          <mxGeometry width="50" height="50" relative="1" as="geometry">
            <mxPoint x="500" y="190" as="sourcePoint" />
            <mxPoint x="525" y="140" as="targetPoint" />
          </mxGeometry>
        </mxCell>
        <mxCell id="E2FdCw3m_LIYb2GWAZag-2" value="USB/DC charge in" style="edgeLabel;html=1;align=center;verticalAlign=middle;resizable=0;points=[];" vertex="1" connectable="0" parent="E2FdCw3m_LIYb2GWAZag-1">
          <mxGeometry x="-0.186" relative="1" as="geometry">
            <mxPoint as="offset" />
          </mxGeometry>
        </mxCell>
      </root>
    </mxGraphModel>
  </diagram>
</mxfile>
